<svg xmlns="http://www.w3.org/2000/svg" version="1.1" xmlns:xlink="http://www.w3.org/1999/xlink" xmlns:svgjs="http://svgjs.dev/svgjs" viewBox="0 0 5.770031607618781 4.812388166919798"><g transform="matrix(1,0,0,1,2.8850158038093907,4.0141248045166575)"><g><path d=" M -1.5930350537874884 -1.9261025901912179 L -1.512973967880528 -2.129943760035286 L -1.373356728261303 -2.0751073998250393 L -1.5250706581763194 -1.6888330368785174 L -2.1812716843866764 -1.9465639298666773 L -2.1096188403786202 -2.128997122969131 L -1.5930350537874884 -1.9261025901912179 M -1.6122211251975946 -2.657994879480519 L -1.5252194337562177 -2.582790453504786 L -1.3780803394558712 -2.753011154150958 L -1.2653564088057394 -2.6555723761476173 L -1.412495503106086 -2.4853516755014455 L -1.3164153742969134 -2.4022998311630275 L -1.149657734089854 -2.5952166252286895 L -1.0308815118611916 -2.4925462349835588 L -1.3258136519921084 -2.151348297243898 L -1.8591718473501142 -2.6123841260516505 L -1.5642397072191974 -2.953582063791311 L -1.4454634849905352 -2.8509116735461806 L -1.6122211251975946 -2.657994879480519 M -0.551103930864463 -2.7627329859078222 L -0.7598386373914667 -2.8843875061324553 L -0.7808914877772772 -2.6545032363560463 L -0.9826341066416773 -2.5594826294661015 L -0.9292860320556797 -2.9836476715640643 L -1.2902729802216164 -3.193869990202794 L -1.0812929579898838 -3.2922994081022434 L -0.8783074600274867 -3.173463859477441 L -0.8578381290234856 -3.3975464480207025 L -0.6560955101590855 -3.492567054910648 L -0.7092861667394619 -3.0751083694667485 L -0.34212390863273034 -2.861162403807272 L -0.551103930864463 -2.7627329859078222 M -0.12691828542166655 -3.561067033896458 L -0.05718232549817043 -2.8595245220744383 L -0.2522210947423064 -2.8401369360531543 L -0.32195705466580254 -3.541679447875174 L -0.12691828542166655 -3.561067033896458 M 0.6668028843467259 -3.4770782417871073 L 0.6380909381839547 -3.3237432355180037 L 0.36090842685134383 -3.3756455997353205 L 0.3380861106706796 -3.25376392808552 L 0.5425327856961515 -3.2154813332018253 L 0.5151091960919663 -3.069026743880694 L 0.3106625210664944 -3.107309338764389 L 0.2598644624708223 -2.8360243276728974 L 0.0672127879275892 -2.872098311313302 L 0.19696869847088191 -3.5650545896448294 L 0.6668028843467259 -3.4770782417871073 M 1.1135990239010516 -3.2728671526847446 L 0.7947601012937735 -2.644085202060659 L 0.619949800127361 -2.7327269450833915 L 0.9387887227346391 -3.3615088957074772 L 1.1135990239010516 -3.2728671526847446 M 1.4225049785358959 -2.854769767462234 L 1.3441738272546107 -2.770572197788588 L 1.5089082027030476 -2.617315597455639 L 1.4074182762603389 -2.508224833269785 L 1.2426839008119017 -2.6614814336027344 L 1.1561790641795258 -2.568498030571839 L 1.3428780230210877 -2.394807216861163 L 1.2359389730109853 -2.2798592304371423 L 0.9057380693343404 -2.5870535715489655 L 1.3859420837109155 -3.1032212812874014 L 1.7161429873875602 -2.796026940175578 L 1.6092039373774578 -2.681078953751558 L 1.4225049785358959 -2.854769767462234 M 1.4568685535964099 -1.8684215194001683 L 1.635169365954622 -2.1038123015315033 L 1.626441965930494 -2.122912890234966 L 1.3899584867447632 -2.0148593661267173 L 1.308502753186237 -2.1931315273590375 L 1.9497368025167767 -2.4861228138833282 L 2.0781542600146574 -2.2050712943895174 Q 2.113479450588508 -2.1277593877326435 2.1111675093823834 -2.0618359099128303 Q 2.108855568176259 -1.995912432093017 2.0744813625808067 -1.9472229672193757 Q 2.040107156985354 -1.8985335023457344 1.9818958390319432 -1.8719357117960114 Q 1.916408106334356 -1.842013197427573 1.8504217070347477 -1.8552908142119455 Q 1.7844353077351394 -1.8685684309963178 1.7319307390678365 -1.9281357900871863 L 1.5478828681337427 -1.6692296657783412 L 1.4568685535964099 -1.8684215194001683 M 1.748321912895448 -2.1786020141984483 L 1.7886341891973716 -2.0903754854253105 Q 1.8052578082909483 -2.053993411704429 1.8308511028551555 -2.0436985939134367 Q 1.8564443974193627 -2.033403776122445 1.8891882637681563 -2.048365033306664 Q 1.9201130264309056 -2.0624951095362043 1.9293296825843773 -2.089244936626275 Q 1.938546338737849 -2.1159947637163454 1.9223383101216118 -2.151467285594205 L 1.8820260338196881 -2.2396938143673433 L 1.748321912895448 -2.1786020141984483" fill="#ffffff" fill-rule="nonzero"></path></g><g><path d=" M -2.3572524414062497 0.3469999999999999 Q -2.3877524414062496 0.3344999999999999 -2.4060024414062497 0.30999999999999994 Q -2.42425244140625 0.2854999999999999 -2.4252524414062497 0.25099999999999995 L -2.3342524414062495 0.25099999999999995 Q -2.3322524414062498 0.2704999999999999 -2.3207524414062495 0.28074999999999994 Q -2.3092524414062496 0.2909999999999999 -2.2907524414062497 0.2909999999999999 Q -2.2717524414062495 0.2909999999999999 -2.2607524414062494 0.28224999999999995 Q -2.2497524414062497 0.2734999999999999 -2.2497524414062497 0.2579999999999999 Q -2.2497524414062497 0.24499999999999994 -2.25850244140625 0.23649999999999993 Q -2.26725244140625 0.22799999999999992 -2.28000244140625 0.22249999999999992 Q -2.2927524414062495 0.21699999999999992 -2.3162524414062498 0.20999999999999994 Q -2.3502524414062496 0.19949999999999993 -2.3717524414062496 0.18899999999999992 Q -2.3932524414062497 0.17849999999999994 -2.4087524414062496 0.15799999999999992 Q -2.42425244140625 0.13749999999999993 -2.42425244140625 0.10449999999999993 Q -2.42425244140625 0.05549999999999994 -2.3887524414062495 0.02774999999999994 Q -2.3532524414062497 -5.551115123125783e-17 -2.2962524414062497 -5.551115123125783e-17 Q -2.2382524414062495 -5.551115123125783e-17 -2.2027524414062496 0.02774999999999994 Q -2.1672524414062497 0.05549999999999994 -2.16475244140625 0.10499999999999993 L -2.2572524414062496 0.10499999999999993 Q -2.2582524414062495 0.08799999999999991 -2.2697524414062498 0.07824999999999993 Q -2.2812524414062496 0.0684999999999999 -2.29925244140625 0.0684999999999999 Q -2.3147524414062497 0.0684999999999999 -2.3242524414062498 0.07674999999999993 Q -2.33375244140625 0.08499999999999991 -2.33375244140625 0.10049999999999992 Q -2.33375244140625 0.11749999999999991 -2.31775244140625 0.12699999999999992 Q -2.30175244140625 0.13649999999999993 -2.2677524414062495 0.14749999999999994 Q -2.2337524414062497 0.15899999999999992 -2.2125024414062495 0.16949999999999993 Q -2.1912524414062498 0.17999999999999994 -2.1757524414062495 0.19999999999999993 Q -2.1602524414062496 0.21999999999999992 -2.1602524414062496 0.25149999999999995 Q -2.1602524414062496 0.2814999999999999 -2.1755024414062496 0.30599999999999994 Q -2.1907524414062496 0.3304999999999999 -2.2197524414062495 0.3449999999999999 Q -2.24875244140625 0.35949999999999993 -2.2882524414062497 0.35949999999999993 Q -2.3267524414062497 0.35949999999999993 -2.3572524414062497 0.3469999999999999 M -1.8492573242187498 0.17374999999999993 Q -1.8632573242187498 0.19899999999999993 -1.8922573242187497 0.2144999999999999 Q -1.9212573242187498 0.22999999999999993 -1.9642573242187498 0.22999999999999993 L -2.01725732421875 0.22999999999999993 L -2.01725732421875 0.3559999999999999 L -2.1027573242187496 0.3559999999999999 L -2.1027573242187496 0.004999999999999893 L -1.9642573242187498 0.004999999999999893 Q -1.9222573242187497 0.004999999999999893 -1.8932573242187498 0.019499999999999906 Q -1.8642573242187497 0.03399999999999992 -1.8497573242187497 0.05949999999999994 Q -1.8352573242187498 0.08499999999999991 -1.8352573242187498 0.11799999999999991 Q -1.8352573242187498 0.1484999999999999 -1.8492573242187498 0.17374999999999993 M -1.9342573242187497 0.1504999999999999 Q -1.9222573242187497 0.13899999999999993 -1.9222573242187497 0.11799999999999991 Q -1.9222573242187497 0.09699999999999992 -1.9342573242187497 0.08549999999999991 Q -1.9462573242187498 0.0739999999999999 -1.9707573242187497 0.0739999999999999 L -2.01725732421875 0.0739999999999999 L -2.01725732421875 0.16199999999999992 L -1.9707573242187497 0.16199999999999992 Q -1.9462573242187498 0.16199999999999992 -1.9342573242187497 0.1504999999999999 M -1.7002456054687498 0.0734999999999999 L -1.7002456054687498 0.14449999999999993 L -1.5857456054687498 0.14449999999999993 L -1.5857456054687498 0.21049999999999994 L -1.7002456054687498 0.21049999999999994 L -1.7002456054687498 0.2874999999999999 L -1.5707456054687499 0.2874999999999999 L -1.5707456054687499 0.3559999999999999 L -1.78574560546875 0.3559999999999999 L -1.78574560546875 0.004999999999999893 L -1.5707456054687499 0.004999999999999893 L -1.5707456054687499 0.0734999999999999 L -1.7002456054687498 0.0734999999999999 M -1.29173779296875 0.29399999999999993 L -1.42273779296875 0.29399999999999993 L -1.44373779296875 0.3559999999999999 L -1.53323779296875 0.3559999999999999 L -1.40623779296875 0.004999999999999893 L -1.30723779296875 0.004999999999999893 L -1.18023779296875 0.3559999999999999 L -1.27073779296875 0.3559999999999999 L -1.29173779296875 0.29399999999999993 M -1.31373779296875 0.22799999999999992 L -1.35723779296875 0.09949999999999992 L -1.40023779296875 0.22799999999999992 L -1.31373779296875 0.22799999999999992 M -0.933238037109375 0.3559999999999999 L -1.051238037109375 0.20099999999999993 L -1.051238037109375 0.3559999999999999 L -1.1367380371093752 0.3559999999999999 L -1.1367380371093752 0.004999999999999893 L -1.051238037109375 0.004999999999999893 L -1.051238037109375 0.15899999999999992 L -0.934238037109375 0.004999999999999893 L -0.833738037109375 0.004999999999999893 L -0.9697380371093751 0.17699999999999994 L -0.8287380371093751 0.3559999999999999 L -0.933238037109375 0.3559999999999999 M -0.44373974609375005 0.004999999999999893 L -0.44373974609375005 0.0734999999999999 L -0.58673974609375 0.0734999999999999 L -0.58673974609375 0.14749999999999994 L -0.47973974609375003 0.14749999999999994 L -0.47973974609375003 0.2139999999999999 L -0.58673974609375 0.2139999999999999 L -0.58673974609375 0.3559999999999999 L -0.67223974609375 0.3559999999999999 L -0.67223974609375 0.004999999999999893 L -0.44373974609375005 0.004999999999999893 M -0.30824121093750007 0.2899999999999999 L -0.19624121093750005 0.2899999999999999 L -0.19624121093750005 0.3559999999999999 L -0.39374121093750003 0.3559999999999999 L -0.39374121093750003 0.004999999999999893 L -0.30824121093750007 0.004999999999999893 L -0.30824121093750007 0.2899999999999999 M 0.06825366210937497 0.29399999999999993 L -0.06274633789062502 0.29399999999999993 L -0.08374633789062502 0.3559999999999999 L -0.17324633789062502 0.3559999999999999 L -0.04624633789062502 0.004999999999999893 L 0.05275366210937499 0.004999999999999893 L 0.17975366210937496 0.3559999999999999 L 0.08925366210937499 0.3559999999999999 L 0.06825366210937497 0.29399999999999993 M 0.04625366210937498 0.22799999999999992 L 0.0027536621093749714 0.09949999999999992 L -0.04024633789062501 0.22799999999999992 L 0.04625366210937498 0.22799999999999992 M 0.70625341796875 0.004999999999999893 L 0.6147534179687499 0.3559999999999999 L 0.51125341796875 0.3559999999999999 L 0.45525341796874996 0.12499999999999992 L 0.39725341796875 0.3559999999999999 L 0.29375341796875 0.3559999999999999 L 0.20475341796875 0.004999999999999893 L 0.29625341796875 0.004999999999999893 L 0.34675341796875 0.26049999999999995 L 0.40925341796875 0.004999999999999893 L 0.50325341796875 0.004999999999999893 L 0.56325341796875 0.26049999999999995 L 0.61425341796875 0.004999999999999893 L 0.70625341796875 0.004999999999999893 M 0.83975439453125 0.2899999999999999 L 0.95175439453125 0.2899999999999999 L 0.95175439453125 0.3559999999999999 L 0.75425439453125 0.3559999999999999 L 0.75425439453125 0.004999999999999893 L 0.83975439453125 0.004999999999999893 L 0.83975439453125 0.2899999999999999 M 1.083249267578125 0.0734999999999999 L 1.083249267578125 0.14449999999999993 L 1.197749267578125 0.14449999999999993 L 1.197749267578125 0.21049999999999994 L 1.083249267578125 0.21049999999999994 L 1.083249267578125 0.2874999999999999 L 1.212749267578125 0.2874999999999999 L 1.212749267578125 0.3559999999999999 L 0.997749267578125 0.3559999999999999 L 0.997749267578125 0.004999999999999893 L 1.212749267578125 0.004999999999999893 L 1.212749267578125 0.0734999999999999 L 1.083249267578125 0.0734999999999999 M 1.331257080078125 0.3469999999999999 Q 1.300757080078125 0.3344999999999999 1.2825070800781249 0.30999999999999994 Q 1.264257080078125 0.2854999999999999 1.2632570800781249 0.25099999999999995 L 1.354257080078125 0.25099999999999995 Q 1.356257080078125 0.2704999999999999 1.367757080078125 0.28074999999999994 Q 1.379257080078125 0.2909999999999999 1.397757080078125 0.2909999999999999 Q 1.416757080078125 0.2909999999999999 1.427757080078125 0.28224999999999995 Q 1.4387570800781249 0.2734999999999999 1.4387570800781249 0.2579999999999999 Q 1.4387570800781249 0.24499999999999994 1.430007080078125 0.23649999999999993 Q 1.421257080078125 0.22799999999999992 1.408507080078125 0.22249999999999992 Q 1.395757080078125 0.21699999999999992 1.3722570800781249 0.20999999999999994 Q 1.338257080078125 0.19949999999999993 1.316757080078125 0.18899999999999992 Q 1.295257080078125 0.17849999999999994 1.279757080078125 0.15799999999999992 Q 1.264257080078125 0.13749999999999993 1.264257080078125 0.10449999999999993 Q 1.264257080078125 0.05549999999999994 1.299757080078125 0.02774999999999994 Q 1.335257080078125 -5.551115123125783e-17 1.3922570800781249 -5.551115123125783e-17 Q 1.450257080078125 -5.551115123125783e-17 1.485757080078125 0.02774999999999994 Q 1.5212570800781249 0.05549999999999994 1.523757080078125 0.10499999999999993 L 1.431257080078125 0.10499999999999993 Q 1.430257080078125 0.08799999999999991 1.4187570800781248 0.07824999999999993 Q 1.407257080078125 0.0684999999999999 1.389257080078125 0.0684999999999999 Q 1.373757080078125 0.0684999999999999 1.3642570800781249 0.07674999999999993 Q 1.354757080078125 0.08499999999999991 1.354757080078125 0.10049999999999992 Q 1.354757080078125 0.11749999999999991 1.370757080078125 0.12699999999999992 Q 1.386757080078125 0.13649999999999993 1.420757080078125 0.14749999999999994 Q 1.4547570800781249 0.15899999999999992 1.476007080078125 0.16949999999999993 Q 1.4972570800781249 0.17999999999999994 1.512757080078125 0.19999999999999993 Q 1.528257080078125 0.21999999999999992 1.528257080078125 0.25149999999999995 Q 1.528257080078125 0.2814999999999999 1.513007080078125 0.30599999999999994 Q 1.497757080078125 0.3304999999999999 1.4687570800781249 0.3449999999999999 Q 1.439757080078125 0.35949999999999993 1.4002570800781249 0.35949999999999993 Q 1.361757080078125 0.35949999999999993 1.331257080078125 0.3469999999999999 M 1.6437521972656248 0.3469999999999999 Q 1.6132521972656249 0.3344999999999999 1.5950021972656248 0.30999999999999994 Q 1.5767521972656249 0.2854999999999999 1.5757521972656248 0.25099999999999995 L 1.666752197265625 0.25099999999999995 Q 1.668752197265625 0.2704999999999999 1.6802521972656248 0.28074999999999994 Q 1.6917521972656249 0.2909999999999999 1.7102521972656248 0.2909999999999999 Q 1.729252197265625 0.2909999999999999 1.7402521972656249 0.28224999999999995 Q 1.7512521972656248 0.2734999999999999 1.7512521972656248 0.2579999999999999 Q 1.7512521972656248 0.24499999999999994 1.742502197265625 0.23649999999999993 Q 1.733752197265625 0.22799999999999992 1.7210021972656249 0.22249999999999992 Q 1.7082521972656248 0.21699999999999992 1.6847521972656248 0.20999999999999994 Q 1.650752197265625 0.19949999999999993 1.6292521972656249 0.18899999999999992 Q 1.6077521972656248 0.17849999999999994 1.592252197265625 0.15799999999999992 Q 1.5767521972656249 0.13749999999999993 1.5767521972656249 0.10449999999999993 Q 1.5767521972656249 0.05549999999999994 1.612252197265625 0.02774999999999994 Q 1.6477521972656248 -5.551115123125783e-17 1.7047521972656248 -5.551115123125783e-17 Q 1.7627521972656248 -5.551115123125783e-17 1.798252197265625 0.02774999999999994 Q 1.8337521972656248 0.05549999999999994 1.836252197265625 0.10499999999999993 L 1.743752197265625 0.10499999999999993 Q 1.7427521972656248 0.08799999999999991 1.7312521972656247 0.07824999999999993 Q 1.719752197265625 0.0684999999999999 1.7017521972656249 0.0684999999999999 Q 1.6862521972656248 0.0684999999999999 1.6767521972656247 0.07674999999999993 Q 1.667252197265625 0.08499999999999991 1.667252197265625 0.10049999999999992 Q 1.667252197265625 0.11749999999999991 1.683252197265625 0.12699999999999992 Q 1.699252197265625 0.13649999999999993 1.733252197265625 0.14749999999999994 Q 1.7672521972656248 0.15899999999999992 1.788502197265625 0.16949999999999993 Q 1.8097521972656248 0.17999999999999994 1.8252521972656248 0.19999999999999993 Q 1.840752197265625 0.21999999999999992 1.840752197265625 0.25149999999999995 Q 1.840752197265625 0.2814999999999999 1.825502197265625 0.30599999999999994 Q 1.810252197265625 0.3304999999999999 1.7812521972656248 0.3449999999999999 Q 1.7522521972656249 0.35949999999999993 1.7127521972656248 0.35949999999999993 Q 1.6742521972656248 0.35949999999999993 1.6437521972656248 0.3469999999999999 M 1.9837473144531248 0.2899999999999999 L 2.0957473144531247 0.2899999999999999 L 2.0957473144531247 0.3559999999999999 L 1.8982473144531247 0.3559999999999999 L 1.8982473144531247 0.004999999999999893 L 1.9837473144531248 0.004999999999999893 L 1.9837473144531248 0.2899999999999999 M 2.4427421874999995 0.004999999999999893 L 2.3212421874999998 0.23999999999999994 L 2.3212421874999998 0.3559999999999999 L 2.2357421874999996 0.3559999999999999 L 2.2357421874999996 0.23999999999999994 L 2.1142421874999995 0.004999999999999893 L 2.2112421874999995 0.004999999999999893 L 2.2792421874999995 0.1519999999999999 L 2.3467421875 0.004999999999999893 L 2.4427421874999995 0.004999999999999893" fill="#ffffff" fill-rule="nonzero"></path></g><g clip-path="url(&quot;#SvgjsClipPath1001&quot;)"><g clip-path="url(&quot;#SvgjsClipPath10009a09b9b4-e39e-42f0-936e-3a83bd1680ed&quot;)"><path d=" M 0 -0.1875 C 0.6107995233707832 -0.1875 1.1059503699095745 -0.6826508465387917 1.1059503699095745 -1.2934503699095745 C 1.1059503699095745 -1.9042498932803573 0.6107995233707832 -2.399400739819149 0 -2.399400739819149 C -0.6107995233707826 -2.399400739819149 -1.1059503699095743 -1.9042498932803573 -1.1059503699095745 -1.2934503699095745 C -1.1059503699095743 -0.6826508465387913 -0.6107995233707826 -0.1875 0 -0.1875 Z M -0.42026114056563835 -1.7247710141743084 C -0.4202611410652276 -1.736624554834067 -0.413937352684587 -1.7475776783163912 -0.40367188542066923 -1.7535044487968634 C -0.39340641815675137 -1.7594312192773356 -0.3807588407799506 -1.7594312192773356 -0.37049337351603273 -1.7535044487968634 C -0.360227906252115 -1.7475776783163912 -0.35390411787147436 -1.736624554834067 -0.35390411837106384 -1.7247710141615609 L -0.35390411837106384 -0.8621297256448404 C -0.35390411787147436 -0.8502761849850815 -0.360227906252115 -0.8393230615027576 -0.37049337351603273 -0.8333962910222852 C -0.3807588407799506 -0.827469520541813 -0.39340641815675137 -0.827469520541813 -0.40367188542066923 -0.8333962910222852 C -0.413937352684587 -0.8393230615027576 -0.4202611410652276 -0.8502761849850815 -0.4202611405656381 -0.8621297256575882 Z M -0.5750941923529787 -1.525699947590585 C -0.5750941923529787 -1.5440239332917085 -0.5602396669568149 -1.5588784586878723 -0.5419156812556916 -1.5588784586878723 C -0.5235916955545681 -1.5588784586878723 -0.5087371701584044 -1.5440239332917085 -0.5087371701584044 -1.525699947590585 L -0.5087371701584044 -1.0612007922285638 C -0.5087371701584044 -1.0428768065274403 -0.5235916955545681 -1.0280222811312767 -0.5419156812556916 -1.0280222811312767 C -0.5602396669568149 -1.0280222811312767 -0.5750941923529787 -1.0428768065274403 -0.5750941923529787 -1.0612007922285638 Z M -0.23224957768101062 -1.5367594512896807 C -0.24104906593233555 -1.536759451289681 -0.24948815005409242 -1.5332638681924418 -0.2557103278675755 -1.5270416903789585 C -0.26193250568105875 -1.5208195125654753 -0.2654280887782978 -1.5123804284437186 -0.2654280887782978 -1.5035809401923936 L -0.2654280887782978 -1.0833197996267554 C -0.2654280880059997 -1.0649958144589815 -0.2505735628360368 -1.0501412899150901 -0.23224957768101073 -1.0501412899150901 C -0.21392559252598464 -1.0501412899150901 -0.19907106735602176 -1.0649958144589815 -0.19907106658372353 -1.0833197996140076 L -0.19907106658372353 -1.5035809401923936 C -0.19907106658372353 -1.5219049258935171 -0.21392559197988714 -1.5367594512896807 -0.23224957768101062 -1.5367594512896807 Z M -0.1105950369909573 -1.437223917997819 C -0.11059503621865929 -1.4555479031655931 -0.09574051104869641 -1.4704024277094847 -0.0774165258936701 -1.4704024277094847 C -0.05909254073864423 -1.4704024277094847 -0.04423801556868123 -1.4555479031655931 -0.04423801479638301 -1.4372239180105668 L -0.04423801479638301 -1.1496768218213296 C -0.04423801556868123 -1.131352836653556 -0.05909254073864423 -1.1164983121096645 -0.0774165258936701 -1.1164983121096645 C -0.09574051104869641 -1.1164983121096645 -0.11059503621865929 -1.131352836653556 -0.1105950369909573 -1.149676821808582 Z M 0.07741652589367032 -1.5367594512896807 C 0.06861703764234539 -1.536759451289681 0.06017795352058841 -1.5332638681924418 0.05395577570710519 -1.5270416903789585 C 0.04773359789362197 -1.5208195125654753 0.04423801479638301 -1.5123804284437186 0.04423801479638301 -1.5035809401923936 L 0.04423801479638301 -1.0833197996267554 C 0.04423801556868123 -1.0649958144589815 0.05909254073864423 -1.0501412899150901 0.07741652589367032 -1.0501412899150901 C 0.09574051104869641 -1.0501412899150901 0.1105950362186594 -1.0649958144589815 0.11059503699095741 -1.0833197996140076 L 0.11059503699095741 -1.5035809401923936 C 0.11059503699095741 -1.5219049258935171 0.09574051159479358 -1.5367594512896807 0.07741652589367032 -1.5367594512896807 Z M 0.19907106658372342 -1.4151049105996276 C 0.19907106658372342 -1.433428896300751 0.21392559197988725 -1.4482834216969147 0.23224957768101073 -1.4482834216969147 C 0.2505735633821342 -1.4482834216969147 0.2654280887782978 -1.433428896300751 0.26542808877829827 -1.4151049105996276 L 0.26542808877829827 -1.1717958292195214 C 0.26542808877829827 -1.153471843518398 0.2505735633821342 -1.1386173181222339 0.23224957768101073 -1.1386173181222339 C 0.21392559197988725 -1.1386173181222339 0.19907106658372364 -1.153471843518398 0.19907106658372342 -1.1717958292195214 Z M 0.38708262946835115 -1.5367594512896807 C 0.36875864376722767 -1.5367594512896807 0.35390411837106406 -1.5219049258935171 0.35390411837106406 -1.5035809401923936 L 0.35390411837106406 -1.0833197996267554 C 0.35390411837106406 -1.064995813925632 0.36875864376722767 -1.0501412885294683 0.38708262946835137 -1.0501412885294683 C 0.40540661516947485 -1.0501412885294683 0.4202611405656387 -1.064995813925632 0.4202611405656387 -1.0833197996267554 L 0.4202611405656387 -1.5035809401923936 C 0.42026114056563846 -1.5123804284437186 0.4167655574683995 -1.5208195125654753 0.4105433796549163 -1.5270416903789585 C 0.40432120184143283 -1.5332638681924418 0.3958821177196763 -1.5367594512896807 0.38708262946835137 -1.5367594512896807 Z M 0.5087371701584043 -1.392985903201436 C 0.508737170158404 -1.4113098889025597 0.5235916955545679 -1.4261644142987233 0.5419156812556913 -1.4261644142987233 C 0.5602396669568148 -1.4261644142987233 0.5750941923529784 -1.4113098889025597 0.5750941923529789 -1.392985903201436 L 0.5750941923529789 -1.1939148366177128 C 0.5750941923529789 -1.1755908509165893 0.5602396669568148 -1.1607363255204253 0.5419156812556913 -1.1607363255204253 C 0.5235916955545679 -1.1607363255204253 0.5087371701584043 -1.1755908509165893 0.508737170158404 -1.1939148366177128 Z M 0.696748733043032 -1.3819263995023403 C 0.6784247473419085 -1.3819263995023403 0.6635702219457447 -1.3670718741061767 0.6635702219457447 -1.3487478884050532 L 0.6635702219457447 -1.2381528514140958 C 0.6635702219457447 -1.2198288657129723 0.6784247473419085 -1.2049743403168085 0.696748733043032 -1.2049743403168085 C 0.7150727187441555 -1.2049743403168085 0.7299272441403193 -1.2198288657129723 0.7299272441403193 -1.2381528514140958 L 0.7299272441403193 -1.3487478884050532 C 0.7299272441403188 -1.3670718741061767 0.7150727187441555 -1.3819263995023403 0.696748733043032 -1.3819263995023403 Z M -0.7299272441403192 -1.3708668958032446 C -0.7299272441403191 -1.389190881504368 -0.7150727187441555 -1.404045406900532 -0.696748733043032 -1.404045406900532 C -0.6784247473419085 -1.404045406900532 -0.6635702219457447 -1.389190881504368 -0.6635702219457447 -1.3708668958032446 L -0.6635702219457447 -1.2160338440159044 C -0.6635702219457447 -1.197709858314781 -0.6784247473419085 -1.182855332918617 -0.696748733043032 -1.182855332918617 C -0.7150727187441555 -1.182855332918617 -0.7299272441403191 -1.197709858314781 -0.7299272441403191 -1.2160338440159044 Z" fill="#337551" transform="matrix(1,0,0,1,0,0)" fill-rule="evenodd"></path></g></g></g><defs><clipPath id="SvgjsClipPath1001"><path d=" M -1.1059503699095745 -2.399400739819149 h 2.211900739819149 v 2.211900739819149 h -2.211900739819149 Z"></path></clipPath><clipPath id="SvgjsClipPath10009a09b9b4-e39e-42f0-936e-3a83bd1680ed"><path d=" M -1.1059503699095745 -2.399400739819149 L 1.1059503699095745 -2.399400739819149 L 1.1059503699095745 -0.1875 L -1.1059503699095745 -0.1875 Z"></path></clipPath></defs></svg>